<svg width="27" height="29" viewBox="0 0 27 29" fill="none" xmlns="http://www.w3.org/2000/svg">
<g clip-path="url(#clip0_745_302)">
<path d="M0.0773898 13.726C0.192753 6.4913 5.69297 0.036535 13.3791 0.137517C21.0481 0.238323 26.7643 6.84234 26.7345 14.4122C26.7034 22.4363 20.5741 28.2942 13.4033 28.1845C6.24968 28.0749 0.0165775 21.8699 0.0773898 13.726ZM2.27016 14.0427C2.30418 20.106 6.77839 25.6984 13.3751 25.8663C19.4944 26.0212 24.343 21.059 24.5358 14.7359C24.735 8.20862 19.98 2.74539 13.7439 2.45113C7.41466 2.15392 2.28747 7.29745 2.27016 14.0427Z" fill="#1D3C6D"/>
<path d="M11.7043 16.8635C12.8679 15.4423 14.0182 14.0309 15.1705 12.6256C16.1603 11.4168 17.152 10.21 18.1495 9.00729C18.5065 8.57661 19.0099 8.46168 19.4695 8.68658C19.9234 8.91142 20.1866 9.3805 20.0983 9.91003C20.0615 10.1318 19.9429 10.3608 19.8032 10.5355C19.1932 11.3079 18.5641 12.06 17.9407 12.8202C16.184 14.9619 14.4291 17.1057 12.6705 19.2453C12.1057 19.9321 11.4725 19.9636 10.8659 19.3129C9.58589 17.9426 8.32095 16.5565 7.05035 15.1763C6.73079 14.8308 6.60871 14.4272 6.76208 13.9664C6.91359 13.5136 7.22977 13.2566 7.6763 13.1832C8.04113 13.1229 8.3425 13.2781 8.59316 13.5469C9.13847 14.1309 9.67812 14.721 10.2196 15.307C10.6789 15.8041 11.1362 16.3032 11.5955 16.8003C11.6165 16.8226 11.6489 16.8309 11.7042 16.8615L11.7043 16.8635Z" fill="#1D3C6D"/>
</g>
<defs>
<clipPath id="clip0_745_302">
<rect width="26.6581" height="28.0487" fill="white" transform="matrix(0.999947 0.010273 0.00561071 0.999984 0 0)"/>
</clipPath>
</defs>
</svg>
