<!DOCTYPE svg PUBLIC "-//W3C//DTD SVG 1.1//EN" "http://www.w3.org/Graphics/SVG/1.1/DTD/svg11.dtd">
<!-- Uploaded to: SVG Repo, www.svgrepo.com, Transformed by: SVG Repo Mixer Tools -->
<svg fill="#2C8CBE" height="256px" width="256px" version="1.1" id="Layer_1" xmlns="http://www.w3.org/2000/svg" xmlns:xlink="http://www.w3.org/1999/xlink" viewBox="0 0 512 512" xml:space="preserve" stroke="#2C8CBE">
<g id="SVGRepo_bgCarrier" stroke-width="0"/>
<g id="SVGRepo_tracerCarrier" stroke-linecap="round" stroke-linejoin="round"/>
<g id="SVGRepo_iconCarrier"> <g> <g> <path d="M217.043,239.304c-9.206,0-16.696,7.49-16.696,16.696c0,9.206,7.49,16.696,16.696,16.696 c9.206,0,16.696-7.49,16.696-16.696C233.739,246.794,226.249,239.304,217.043,239.304z"/> </g> </g> <g> <g> <path d="M177.194,286.012c-6.337-8.39-10.238-18.711-10.238-30.012c0-44.141-66.783-44.121-66.783,0 c0,36.972,17.657,73.483,51.368,96.412C146.469,326.672,156.814,301.242,177.194,286.012z"/> </g> </g> <g> <g> <path d="M217.043,139.13c-38.765,0-74.819,19.581-96.349,51.359c25.686-5.035,51.092,5.26,66.337,25.662 c8.39-6.338,18.711-10.239,30.012-10.239C261.185,205.913,261.165,139.13,217.043,139.13z"/> </g> </g> <g> <g> <path d="M247.056,295.848c-8.39,6.338-18.711,10.239-30.012,10.239c-44.141,0-44.12,66.783,0,66.783 c38.765,0,74.819-19.581,96.35-51.359C287.708,326.546,262.302,316.25,247.056,295.848z"/> </g> </g> <g> <g> <path d="M417.391,139.13H512v-36.87c0-34.902-28.403-63.304-63.304-63.304H63.304C28.397,38.957,0,67.359,0,102.261v307.478 c0,34.902,28.397,63.304,63.304,63.304h385.391c34.902,0,63.304-28.403,63.304-63.304v-36.87h-94.609 c-9.223,0-16.696-7.479-16.696-16.696c0-9.217,7.473-16.696,16.696-16.696H512v-33.391h-94.609 c-9.223,0-16.696-7.479-16.696-16.696s7.473-16.696,16.696-16.696H512v-33.391h-94.609c-9.223,0-16.696-7.479-16.696-16.696 s7.473-16.696,16.696-16.696H512v-33.391h-94.609c-9.223,0-16.696-7.479-16.696-16.696 C400.696,146.609,408.169,139.13,417.391,139.13z M217.043,406.261c-83.404,0-150.261-68.222-150.261-150.261 c0-82.215,67.043-150.261,150.261-150.261c83.404,0,150.261,68.222,150.261,150.261 C367.304,338.215,300.261,406.261,217.043,406.261z"/> </g> </g> <g> <g> <path d="M282.545,159.588c5.074,25.74-5.273,51.17-25.652,66.4c6.337,8.39,10.238,18.711,10.238,30.012 c0,44.141,66.783,44.12,66.783,0C333.913,219.028,316.256,182.516,282.545,159.588z"/> </g> </g> </g>
</svg>