<svg width="41" height="41" viewBox="0 0 41 41" fill="none" xmlns="http://www.w3.org/2000/svg">
<rect width="40" height="40" rx="20" transform="matrix(0.999966 0.00823395 0.00375501 0.999993 0 0)" fill="#2C8CBE"/>
<path d="M22.7229 14.4214C22.5404 14.6069 22.4387 14.8573 22.4397 15.1191C22.4407 15.3808 22.5443 15.633 22.7282 15.8214L24.3342 17.4346C24.5218 17.6194 24.7735 17.7241 25.0352 17.7262C25.2969 17.7284 25.5479 17.6278 25.7341 17.4461L29.4898 13.7072C29.9968 14.8225 30.1537 16.0618 29.9396 17.2599C29.7255 18.458 29.1505 19.558 28.2914 20.4133C27.4322 21.2687 26.3296 21.8387 25.1306 22.0474C23.9315 22.2562 22.6929 22.0937 21.5799 21.5818L14.6961 28.4348C14.2998 28.8294 13.7611 29.0484 13.1985 29.0438C12.6359 29.0391 12.0955 28.8112 11.6962 28.4101C11.2969 28.009 11.0714 27.4676 11.0693 26.905C11.0671 26.3424 11.2886 25.8047 11.6849 25.4101L18.5687 18.5571C18.0618 17.4418 17.9049 16.2025 18.119 15.0044C18.3331 13.8063 18.908 12.7063 19.7672 11.8509C20.6264 10.9956 21.7289 10.4256 22.928 10.2168C24.127 10.0081 25.3656 10.1705 26.4787 10.6825L22.7329 14.4115L22.7229 14.4214Z" stroke="white" stroke-width="2" stroke-linecap="round" stroke-linejoin="round"/>
</svg>
